<mxfile host="Electron" agent="Mozilla/5.0 (Windows NT 10.0; Win64; x64) AppleWebKit/537.36 (KHTML, like Gecko) draw.io/25.0.2 Chrome/128.0.6613.186 Electron/32.2.5 Safari/537.36" version="25.0.2">
  <diagram name="Page-1" id="fgpEkmtvPXHMSdBiv-Mk">
    <mxGraphModel dx="1302" dy="758" grid="1" gridSize="10" guides="1" tooltips="1" connect="1" arrows="1" fold="1" page="1" pageScale="1" pageWidth="850" pageHeight="1100" math="0" shadow="0">
      <root>
        <mxCell id="0" />
        <mxCell id="1" parent="0" />
        <mxCell id="sy4Lswfj94L6i6Ps-k4w-1" value="ACA environment" style="rounded=0;whiteSpace=wrap;html=1;fillColor=#f5f5f5;fontColor=#333333;strokeColor=#666666;verticalAlign=top;" vertex="1" parent="1">
          <mxGeometry x="160" y="160" width="560" height="360" as="geometry" />
        </mxCell>
        <mxCell id="sy4Lswfj94L6i6Ps-k4w-2" value="" style="image;aspect=fixed;html=1;points=[];align=center;fontSize=12;image=img/lib/azure2/other/Container_App_Environments.svg;" vertex="1" parent="1">
          <mxGeometry x="130" y="130" width="68" height="68" as="geometry" />
        </mxCell>
        <mxCell id="sy4Lswfj94L6i6Ps-k4w-3" value="Microservice 1" style="image;aspect=fixed;html=1;points=[];align=center;fontSize=12;image=img/lib/azure2/other/Worker_Container_App.svg;labelBackgroundColor=none;" vertex="1" parent="1">
          <mxGeometry x="425" y="198" width="68" height="66" as="geometry" />
        </mxCell>
        <mxCell id="sy4Lswfj94L6i6Ps-k4w-15" style="edgeStyle=orthogonalEdgeStyle;rounded=0;orthogonalLoop=1;jettySize=auto;html=1;" edge="1" parent="1" source="sy4Lswfj94L6i6Ps-k4w-4" target="sy4Lswfj94L6i6Ps-k4w-3">
          <mxGeometry relative="1" as="geometry" />
        </mxCell>
        <mxCell id="sy4Lswfj94L6i6Ps-k4w-17" style="edgeStyle=orthogonalEdgeStyle;rounded=0;orthogonalLoop=1;jettySize=auto;html=1;dashed=1;" edge="1" parent="1" source="sy4Lswfj94L6i6Ps-k4w-4" target="sy4Lswfj94L6i6Ps-k4w-16">
          <mxGeometry relative="1" as="geometry">
            <Array as="points">
              <mxPoint x="370" y="250" />
              <mxPoint x="370" y="330" />
            </Array>
          </mxGeometry>
        </mxCell>
        <mxCell id="sy4Lswfj94L6i6Ps-k4w-18" style="edgeStyle=orthogonalEdgeStyle;rounded=0;orthogonalLoop=1;jettySize=auto;html=1;" edge="1" parent="1" source="sy4Lswfj94L6i6Ps-k4w-4" target="sy4Lswfj94L6i6Ps-k4w-5">
          <mxGeometry relative="1" as="geometry">
            <Array as="points">
              <mxPoint x="360" y="250" />
              <mxPoint x="360" y="370" />
              <mxPoint x="411" y="370" />
            </Array>
          </mxGeometry>
        </mxCell>
        <mxCell id="sy4Lswfj94L6i6Ps-k4w-4" value="BFF" style="image;aspect=fixed;html=1;points=[];align=center;fontSize=12;image=img/lib/azure2/other/Worker_Container_App.svg;labelBackgroundColor=none;labelPosition=center;verticalLabelPosition=top;verticalAlign=bottom;" vertex="1" parent="1">
          <mxGeometry x="275" y="210" width="68" height="66" as="geometry" />
        </mxCell>
        <mxCell id="sy4Lswfj94L6i6Ps-k4w-5" value="Pgrok" style="image;aspect=fixed;html=1;points=[];align=right;fontSize=12;image=img/lib/azure2/other/Worker_Container_App.svg;labelPosition=left;verticalLabelPosition=middle;verticalAlign=middle;labelBackgroundColor=none;imageBackground=#c925d1;" vertex="1" parent="1">
          <mxGeometry x="377" y="390" width="68" height="66" as="geometry" />
        </mxCell>
        <mxCell id="sy4Lswfj94L6i6Ps-k4w-6" value="LAPTOP" style="rounded=0;whiteSpace=wrap;html=1;fillColor=#f5f5f5;fontColor=#333333;strokeColor=#666666;verticalAlign=top;" vertex="1" parent="1">
          <mxGeometry x="160" y="720" width="560" height="240" as="geometry" />
        </mxCell>
        <mxCell id="sy4Lswfj94L6i6Ps-k4w-31" style="edgeStyle=orthogonalEdgeStyle;rounded=0;orthogonalLoop=1;jettySize=auto;html=1;" edge="1" parent="1" source="sy4Lswfj94L6i6Ps-k4w-7" target="sy4Lswfj94L6i6Ps-k4w-27">
          <mxGeometry relative="1" as="geometry" />
        </mxCell>
        <mxCell id="sy4Lswfj94L6i6Ps-k4w-7" value="" style="verticalLabelPosition=bottom;html=1;verticalAlign=top;align=center;strokeColor=none;fillColor=#00BEF2;shape=mxgraph.azure.visual_studio_online;" vertex="1" parent="1">
          <mxGeometry x="327" y="872" width="50" height="37.5" as="geometry" />
        </mxCell>
        <mxCell id="sy4Lswfj94L6i6Ps-k4w-19" style="edgeStyle=orthogonalEdgeStyle;rounded=0;orthogonalLoop=1;jettySize=auto;html=1;strokeColor=#9999FF;" edge="1" parent="1" source="sy4Lswfj94L6i6Ps-k4w-8" target="sy4Lswfj94L6i6Ps-k4w-10">
          <mxGeometry relative="1" as="geometry">
            <Array as="points">
              <mxPoint x="250" y="590" />
              <mxPoint x="411" y="590" />
            </Array>
          </mxGeometry>
        </mxCell>
        <mxCell id="sy4Lswfj94L6i6Ps-k4w-25" value="http(s)" style="edgeLabel;html=1;align=center;verticalAlign=middle;resizable=0;points=[];" vertex="1" connectable="0" parent="sy4Lswfj94L6i6Ps-k4w-19">
          <mxGeometry x="-0.5428" y="-1" relative="1" as="geometry">
            <mxPoint as="offset" />
          </mxGeometry>
        </mxCell>
        <mxCell id="sy4Lswfj94L6i6Ps-k4w-8" value="browser&lt;div&gt;on pgrok&lt;/div&gt;" style="image;aspect=fixed;html=1;points=[];align=center;fontSize=12;image=img/lib/azure2/general/Browser.svg;" vertex="1" parent="1">
          <mxGeometry x="220" y="771.5" width="65" height="52" as="geometry" />
        </mxCell>
        <mxCell id="sy4Lswfj94L6i6Ps-k4w-14" style="edgeStyle=orthogonalEdgeStyle;rounded=0;orthogonalLoop=1;jettySize=auto;html=1;" edge="1" parent="1" source="sy4Lswfj94L6i6Ps-k4w-9" target="sy4Lswfj94L6i6Ps-k4w-4">
          <mxGeometry relative="1" as="geometry" />
        </mxCell>
        <mxCell id="sy4Lswfj94L6i6Ps-k4w-9" value="ingress" style="ellipse;whiteSpace=wrap;html=1;aspect=fixed;" vertex="1" parent="1">
          <mxGeometry x="140" y="300" width="48" height="48" as="geometry" />
        </mxCell>
        <mxCell id="sy4Lswfj94L6i6Ps-k4w-11" style="edgeStyle=orthogonalEdgeStyle;rounded=0;orthogonalLoop=1;jettySize=auto;html=1;strokeColor=#9999FF;" edge="1" parent="1" source="sy4Lswfj94L6i6Ps-k4w-10" target="sy4Lswfj94L6i6Ps-k4w-5">
          <mxGeometry relative="1" as="geometry" />
        </mxCell>
        <mxCell id="sy4Lswfj94L6i6Ps-k4w-33" style="edgeStyle=orthogonalEdgeStyle;rounded=0;orthogonalLoop=1;jettySize=auto;html=1;startArrow=classic;startFill=1;" edge="1" parent="1" source="sy4Lswfj94L6i6Ps-k4w-10" target="sy4Lswfj94L6i6Ps-k4w-5">
          <mxGeometry relative="1" as="geometry">
            <Array as="points">
              <mxPoint x="420" y="460" />
              <mxPoint x="420" y="460" />
            </Array>
          </mxGeometry>
        </mxCell>
        <mxCell id="sy4Lswfj94L6i6Ps-k4w-10" value="ingress" style="ellipse;whiteSpace=wrap;html=1;aspect=fixed;" vertex="1" parent="1">
          <mxGeometry x="387" y="490" width="48" height="48" as="geometry" />
        </mxCell>
        <mxCell id="sy4Lswfj94L6i6Ps-k4w-13" style="edgeStyle=orthogonalEdgeStyle;rounded=0;orthogonalLoop=1;jettySize=auto;html=1;entryX=0;entryY=0.5;entryDx=0;entryDy=0;" edge="1" parent="1" source="sy4Lswfj94L6i6Ps-k4w-12" target="sy4Lswfj94L6i6Ps-k4w-9">
          <mxGeometry relative="1" as="geometry" />
        </mxCell>
        <mxCell id="sy4Lswfj94L6i6Ps-k4w-12" value="browser&lt;div&gt;on&amp;nbsp;&lt;/div&gt;&lt;div&gt;your application&lt;/div&gt;" style="image;aspect=fixed;html=1;points=[];align=center;fontSize=12;image=img/lib/azure2/general/Browser.svg;" vertex="1" parent="1">
          <mxGeometry x="20" y="298" width="65" height="52" as="geometry" />
        </mxCell>
        <mxCell id="sy4Lswfj94L6i6Ps-k4w-16" value="Microservice 3" style="image;aspect=fixed;html=1;points=[];align=center;fontSize=12;image=img/lib/azure2/other/Worker_Container_App.svg;imageBackground=#FF0000;labelBackgroundColor=none;" vertex="1" parent="1">
          <mxGeometry x="530" y="300" width="68" height="66" as="geometry" />
        </mxCell>
        <mxCell id="sy4Lswfj94L6i6Ps-k4w-20" value="&lt;div&gt;optional :&amp;nbsp;&lt;/div&gt;view active tunnels&lt;div&gt;(monitoring)&lt;/div&gt;" style="shape=callout;whiteSpace=wrap;html=1;perimeter=calloutPerimeter;direction=west;fillColor=#fff2cc;strokeColor=#d6b656;" vertex="1" parent="1">
          <mxGeometry x="180" y="860" width="120" height="80" as="geometry" />
        </mxCell>
        <mxCell id="sy4Lswfj94L6i6Ps-k4w-21" value="service to debug" style="shape=callout;whiteSpace=wrap;html=1;perimeter=calloutPerimeter;direction=east;fillColor=#fff2cc;strokeColor=#d6b656;" vertex="1" parent="1">
          <mxGeometry x="530" y="230" width="120" height="70" as="geometry" />
        </mxCell>
        <mxCell id="sy4Lswfj94L6i6Ps-k4w-24" style="edgeStyle=orthogonalEdgeStyle;rounded=0;orthogonalLoop=1;jettySize=auto;html=1;startArrow=classic;startFill=1;" edge="1" parent="1" source="sy4Lswfj94L6i6Ps-k4w-23" target="sy4Lswfj94L6i6Ps-k4w-10">
          <mxGeometry relative="1" as="geometry">
            <Array as="points">
              <mxPoint x="659" y="590" />
              <mxPoint x="420" y="590" />
            </Array>
          </mxGeometry>
        </mxCell>
        <mxCell id="sy4Lswfj94L6i6Ps-k4w-26" value="ws(s)" style="edgeLabel;html=1;align=center;verticalAlign=middle;resizable=0;points=[];" vertex="1" connectable="0" parent="sy4Lswfj94L6i6Ps-k4w-24">
          <mxGeometry x="-0.4597" relative="1" as="geometry">
            <mxPoint as="offset" />
          </mxGeometry>
        </mxCell>
        <mxCell id="sy4Lswfj94L6i6Ps-k4w-28" style="edgeStyle=orthogonalEdgeStyle;rounded=0;orthogonalLoop=1;jettySize=auto;html=1;startArrow=classic;startFill=1;" edge="1" parent="1" source="sy4Lswfj94L6i6Ps-k4w-23" target="sy4Lswfj94L6i6Ps-k4w-27">
          <mxGeometry relative="1" as="geometry">
            <Array as="points">
              <mxPoint x="474" y="800" />
            </Array>
          </mxGeometry>
        </mxCell>
        <mxCell id="sy4Lswfj94L6i6Ps-k4w-30" value="http://localhost:5000" style="edgeLabel;html=1;align=center;verticalAlign=middle;resizable=0;points=[];" vertex="1" connectable="0" parent="sy4Lswfj94L6i6Ps-k4w-28">
          <mxGeometry x="-0.108" y="-3" relative="1" as="geometry">
            <mxPoint as="offset" />
          </mxGeometry>
        </mxCell>
        <mxCell id="sy4Lswfj94L6i6Ps-k4w-23" value="PgrokClient" style="sketch=0;points=[[0,0,0],[0.25,0,0],[0.5,0,0],[0.75,0,0],[1,0,0],[0,1,0],[0.25,1,0],[0.5,1,0],[0.75,1,0],[1,1,0],[0,0.25,0],[0,0.5,0],[0,0.75,0],[1,0.25,0],[1,0.5,0],[1,0.75,0]];outlineConnect=0;fontColor=#232F3E;fillColor=#C925D1;strokeColor=#ffffff;dashed=0;verticalLabelPosition=bottom;verticalAlign=top;align=center;html=1;fontSize=12;fontStyle=0;aspect=fixed;shape=mxgraph.aws4.resourceIcon;resIcon=mxgraph.aws4.command_line_interface;" vertex="1" parent="1">
          <mxGeometry x="620" y="740" width="78" height="78" as="geometry" />
        </mxCell>
        <mxCell id="sy4Lswfj94L6i6Ps-k4w-27" value="Miroservice 3" style="sketch=0;points=[[0,0,0],[0.25,0,0],[0.5,0,0],[0.75,0,0],[1,0,0],[0,1,0],[0.25,1,0],[0.5,1,0],[0.75,1,0],[1,1,0],[0,0.25,0],[0,0.5,0],[0,0.75,0],[1,0.25,0],[1,0.5,0],[1,0.75,0]];outlineConnect=0;fillColor=#f5f5f5;strokeColor=#666666;dashed=0;verticalLabelPosition=bottom;verticalAlign=top;align=center;html=1;fontSize=12;fontStyle=0;aspect=fixed;shape=mxgraph.aws4.resourceIcon;resIcon=mxgraph.aws4.command_line_interface;labelBackgroundColor=default;gradientColor=#b3b3b3;" vertex="1" parent="1">
          <mxGeometry x="435" y="851.75" width="78" height="78" as="geometry" />
        </mxCell>
        <mxCell id="sy4Lswfj94L6i6Ps-k4w-29" value="pgrokclient that route&lt;div&gt;incoming calls to your local service&lt;/div&gt;" style="shape=callout;whiteSpace=wrap;html=1;perimeter=calloutPerimeter;direction=west;fillColor=#fff2cc;strokeColor=#d6b656;" vertex="1" parent="1">
          <mxGeometry x="578" y="848.5" width="120" height="80" as="geometry" />
        </mxCell>
        <mxCell id="sy4Lswfj94L6i6Ps-k4w-32" value="running in debug mode" style="shape=callout;whiteSpace=wrap;html=1;perimeter=calloutPerimeter;direction=east;fillColor=#fff2cc;strokeColor=#d6b656;position2=0.94;" vertex="1" parent="1">
          <mxGeometry x="327" y="791" width="120" height="80" as="geometry" />
        </mxCell>
        <mxCell id="sy4Lswfj94L6i6Ps-k4w-34" value="call api" style="shape=callout;whiteSpace=wrap;html=1;perimeter=calloutPerimeter;direction=north;fillColor=#fff2cc;strokeColor=#d6b656;base=10;size=13;position=0.5;position2=1;verticalAlign=top;align=left;" vertex="1" parent="1">
          <mxGeometry x="290" y="340" width="67" height="40" as="geometry" />
        </mxCell>
        <mxCell id="sy4Lswfj94L6i6Ps-k4w-35" value="Act as Service Wrapper" style="shape=callout;whiteSpace=wrap;html=1;perimeter=calloutPerimeter;direction=south;fillColor=#fff2cc;strokeColor=#d6b656;size=20;position=0.2;" vertex="1" parent="1">
          <mxGeometry x="450" y="400" width="120" height="60" as="geometry" />
        </mxCell>
      </root>
    </mxGraphModel>
  </diagram>
</mxfile>
